<?xml version="1.0" encoding="UTF-8" standalone="no"?>
<svg
   xmlns:dc="http://purl.org/dc/elements/1.1/"
   xmlns:cc="http://creativecommons.org/ns#"
   xmlns:rdf="http://www.w3.org/1999/02/22-rdf-syntax-ns#"
   xmlns:svg="http://www.w3.org/2000/svg"
   xmlns="http://www.w3.org/2000/svg"
   viewBox="0 0 963.45331 172.73334"
   height="172.73334"
   width="963.45331"
   xml:space="preserve"
   id="svg2"
   version="1.1"><metadata
     id="metadata8"><rdf:RDF><cc:Work
         rdf:about=""><dc:format>image/svg+xml</dc:format><dc:type
           rdf:resource="http://purl.org/dc/dcmitype/StillImage" /></cc:Work></rdf:RDF></metadata><defs
     id="defs6" /><g
     transform="matrix(1.3333333,0,0,-1.3333333,0,172.73333)"
     id="g10"><g
       transform="scale(0.1)"
       id="g12"><path
         id="path14"
         style="fill:#231f20;fill-opacity:1;fill-rule:nonzero;stroke:none"
         d="m 4876.27,27.3398 c 0,-7.9101 6.48,-14.3984 14.4,-14.3984 h 356.41 c 7.92,0 14.4,6.4883 14.4,14.3984 V 1264.24 c 0,7.93 -6.48,14.4 -14.4,14.4 h -356.41 c -7.92,0 -14.4,-6.47 -14.4,-14.4 V 27.3398" /><path
         id="path16"
         style="fill:#231f20;fill-opacity:1;fill-rule:nonzero;stroke:none"
         d="m 2174.3,507.98 173.26,451.719 c 20.63,45.371 40.22,51.571 58.79,51.571 19.6,0 42.29,-18.567 54.66,-53.629 L 2631.88,507.98 Z M 3212.29,42.6719 2687.43,1257.94 c -3.14,7.27 -12.2,13.22 -20.12,13.22 H 2139.2 c -7.92,0 -16.97,-5.95 -20.11,-13.22 L 1594.22,42.6719 c -3.14,-7.2813 0.77,-13.2305 8.69,-13.2305 h 371.35 c 7.92,0 16.83,6.0078 19.8,13.3594 l 75.84,187.8082 c 2.97,7.34 11.87,13.352 19.8,13.352 h 628.11 c 7.92,0 16.7,-6.063 19.51,-13.473 l 71.29,-187.5896 c 2.82,-7.3984 11.6,-13.457 19.52,-13.457 h 375.47 c 7.92,0 11.83,5.9492 8.69,13.2305" /><path
         id="path18"
         style="fill:#231f20;fill-opacity:1;fill-rule:nonzero;stroke:none"
         d="m 6624.5,610.688 c 0,-208.743 -13.29,-290.333 -242.9,-296.028 -59.88,-3.32 -217.77,-3.32 -277.65,0 -229.61,5.695 -242.91,87.285 -242.91,296.028 v 51.238 c 0,49.332 0,98.672 5.7,148.012 22.77,174.578 153.71,165.089 282.75,168.886 47.32,0.703 139.25,0.703 186.56,0 129.05,-3.797 259.99,5.692 282.76,-168.886 5.69,-49.34 5.69,-98.68 5.69,-148.012 z m -178.38,675.552 h -406.7 c -492.05,-7.35 -567.38,-164 -567.38,-622.42 0,-77.8 0,-155.593 3.8,-233.406 13.28,-305.516 180.27,-400.3945 459.22,-421.27337 87.28,-5.69141 290.62,-9.480474 299.03,-9.1210987 0,0 229.11,3.4296887 316.4,9.1210987 278.94,20.87887 445.94,115.75737 459.22,421.27337 3.8,77.813 3.8,155.606 3.8,233.406 0,458.42 -75.34,615.07 -567.39,622.42" /><path
         id="path20"
         style="fill:#231f20;fill-opacity:1;fill-rule:nonzero;stroke:none"
         d="M 1149.32,501.711 C 1138.77,372.797 1093.9,319.23 909.566,314.66 c -59.878,-3.32 -217.781,-3.32 -277.664,0 -229.605,5.695 -242.886,87.285 -242.886,296.028 v 51.238 c 0,49.332 0,98.672 5.687,148.012 22.774,174.578 153.711,165.089 282.742,168.886 47.325,0.703 139.258,0.703 186.578,0 123.118,-3.621 247.877,4.719 278.867,-146.117 h 393.64 C 1513.65,1161.63 1399.97,1279.88 974.086,1286.24 H 567.387 C 75.332,1278.89 0,1122.24 0,663.82 0,586.02 0,508.227 3.80078,430.414 17.082,124.898 184.066,30.0195 463.023,9.14063 550.309,3.44922 753.645,-0.339844 762.055,0.0195313 c 0,0 229.105,3.4296887 316.395,9.1210987 278.95,20.87887 445.94,115.75737 459.23,421.27337 1.15,23.77 1.88,47.527 2.44,71.297 h -390.8" /><path
         id="path22"
         style="fill:#231f20;fill-opacity:1;fill-rule:nonzero;stroke:none"
         d="m 4209,792.602 c -85.39,0.628 -168.86,3.144 -254.25,3.773 l -105.41,4.57 c -87.26,4.438 -219.06,-27.168 -219.28,115.473 -0.14,92.512 89.31,94.562 157.65,97.852 98.71,3.07 84.11,4.74 182.78,4.02 60.72,-0.45 65.58,-0.49 128.19,-2.85 85.36,-4.42 142.14,-25.721 147.13,-120.635 l 377.61,-2.782 c -1.31,79.707 5.17,142.197 -36.02,216.517 -89.98,150.57 -268.48,178.54 -424.07,181.58 l -182.79,5.15 c -146.12,1.07 -354.29,0.71 -489.28,-34.35 -201.51,-49.76 -236.62,-178.53 -238,-366.393 -0.76,-102.261 22.91,-179.859 65.63,-235.89 56.36,-73.918 145.89,-110.293 256.27,-116.231 210.75,-11.328 258.05,-15.176 468.68,-16.73 l 68.8,-0.508 c 83.49,-0.625 178.18,-27.313 177.42,-129.773 -0.79,-108.165 -86.17,-113.286 -171.63,-114.997 -42.13,-0.839 -92.25,-0.707 -177.64,-0.078 -60.71,0.43 -43.05,3.168 -103.77,2.66 -103.1,-0.89 -199.21,5.668 -198.36,121.418 l -379.51,2.801 -0.42,-57.344 c -2.11,-286.3667 186.24,-322.2339 396.03,-336.8941 85.34,-6.33199 172.62,-6.97262 258.01,-7.60934 165.1,-1.21093 163.3,2.59766 328.46,10.86724 292.39,20.621 429.43,76.5507 431.73,387.7382 2.42,328.277 -169.83,386.477 -463.96,388.645" /><path
         id="path24"
         style="fill:#231f20;fill-opacity:1;fill-rule:nonzero;stroke:none"
         d="m 7200.04,70.9883 c -7.58,-12.7695 -17.64,-22.6563 -30.18,-29.6485 -12.54,-6.9882 -25.99,-10.4882 -40.37,-10.4882 -14.37,0 -27.83,3.5 -40.37,10.4882 -12.54,6.9922 -22.58,16.879 -30.12,29.6485 -7.54,12.7734 -11.3,26.6211 -11.3,41.5427 0,14.61 3.63,28.278 10.89,41.02 7.27,12.73 17.29,22.73 30.06,30 12.78,7.258 26.39,10.898 40.84,10.898 14.46,0 28.07,-3.64 40.84,-10.898 12.78,-7.27 22.8,-17.27 30.06,-30 7.27,-12.742 10.9,-26.41 10.9,-41.02 0.08,-14.9216 -3.67,-28.7693 -11.25,-41.5427 z m 13.01,89.8207 c -8.6,15 -20.41,26.781 -35.45,35.339 -15.04,8.551 -31.08,12.832 -48.11,12.832 -16.95,0 -32.97,-4.281 -48.04,-12.832 -15.08,-8.558 -26.9,-20.339 -35.45,-35.339 -8.56,-15 -12.84,-31.09 -12.84,-48.278 0,-17.4997 4.46,-33.7927 13.36,-48.8708 8.91,-15.0704 20.75,-26.75 35.51,-35.0313 14.77,-8.2773 30.59,-12.4297 47.46,-12.4297 16.88,0 32.72,4.1524 47.52,12.4297 14.81,8.2813 26.66,19.9609 35.57,35.0313 8.9,15.0781 13.36,31.3711 13.36,48.8708 0,17.188 -4.3,33.278 -12.89,48.278" /><path
         id="path26"
         style="fill:#231f20;fill-opacity:1;fill-rule:nonzero;stroke:none"
         d="m 7124.34,116.988 h -13.01 v 40.313 h 14.18 c 6.56,0 11.15,-0.903 13.77,-2.699 2.61,-1.793 4.61,-4.043 5.97,-6.743 1.37,-2.687 2.05,-5.718 2.05,-9.078 0,-5.472 -1.67,-10.472 -5.03,-15 -3.36,-4.531 -9.34,-6.793 -17.93,-6.793 z m 32.22,-27.7771 c -4.68,8.668 -9.1,14.3011 -13.24,16.8791 7.89,3.359 13.75,8.121 17.58,14.289 3.83,6.18 5.74,12.66 5.74,19.461 0,5.859 -1.37,11.289 -4.1,16.289 -2.74,5 -6.47,8.84 -11.19,11.543 -4.73,2.687 -11.7,4.039 -20.92,4.039 h -37.85 V 52.6484 h 18.75 v 50.0426 h 13.94 c 1.96,0 5.12,-3.8707 9.5,-11.6012 l 3.86,-7.3906 16.29,-31.0508 h 21.33 l -19.69,36.5625" /></g></g></svg>